<?xml version="1.0" encoding="UTF-8" standalone="no"?>
<!-- Created with Inkscape (http://www.inkscape.org/) -->

<svg
   width="188.11041mm"
   height="166.8781mm"
   viewBox="0 0 188.11041 166.8781"
   version="1.1"
   id="svg5"
   xml:space="preserve"
   inkscape:export-filename="Bufak wiwi Icon vector teal.svg"
   inkscape:export-xdpi="96"
   inkscape:export-ydpi="96"
   xmlns:inkscape="http://www.inkscape.org/namespaces/inkscape"
   xmlns:sodipodi="http://sodipodi.sourceforge.net/DTD/sodipodi-0.dtd"
   xmlns="http://www.w3.org/2000/svg"
   xmlns:svg="http://www.w3.org/2000/svg"><sodipodi:namedview
     id="namedview7"
     pagecolor="#505050"
     bordercolor="#eeeeee"
     borderopacity="1"
     inkscape:showpageshadow="0"
     inkscape:pageopacity="0"
     inkscape:pagecheckerboard="0"
     inkscape:deskcolor="#505050"
     inkscape:document-units="mm"
     showgrid="false" /><defs
     id="defs2" /><g
     inkscape:label="Ebene 1"
     inkscape:groupmode="layer"
     id="layer1"
     style="fill:#024152;fill-opacity:1"
     transform="translate(-11.2989,-64.106604)"><g
       id="g1444"
       style="fill:#18a8cf;fill-opacity:1"><path
         style="fill:#18a8cf;fill-opacity:1;stroke-width:0.4;stroke-linecap:round;stroke-linejoin:round;paint-order:stroke fill markers"
         d="m 11.298901,162.04113 32.137593,33.35544 c 2.921911,-1.04928 5.818955,-2.29749 8.677149,-3.85651 L 22.868234,161.2976 C 56.958113,121.12701 96.89546,108.39454 137.52038,98.888369 102.23286,121.39167 84.943272,148.8113 75.58956,177.15705 80.665864,173.54288 85.352849,169.48377 89.798484,165.14884 115.33602,111.17034 162.09417,93.44226 197.13697,83.153325 132.87805,83.577134 49.691485,106.39183 11.298901,162.04113 Z"
         id="path356"
         sodipodi:nodetypes="ccccccccc" /><path
         style="fill:#18a8cf;fill-opacity:1;stroke-width:0.4;stroke-linecap:round;stroke-linejoin:round;paint-order:stroke fill markers"
         d="m 132.62243,83.947811 c 5.87547,-1.334404 11.33956,-2.250536 16.25549,-2.943953 L 132.56057,64.106606 Z"
         id="path1440"
         sodipodi:nodetypes="cccc" /></g><g
       id="g1456"
       transform="rotate(180,105.25262,147.85012)"
       style="fill:#18a8cf;fill-opacity:1"><path
         style="fill:#18a8cf;fill-opacity:1;stroke-width:0.4;stroke-linecap:round;stroke-linejoin:round;paint-order:stroke fill markers"
         d="m 11.095927,162.31176 31.799302,33.4231 c 3.111434,-0.92042 6.284905,-2.36892 9.01544,-3.92417 L 22.732918,161.43292 C 56.822797,121.26233 96.512728,108.68159 137.13765,99.175418 101.85013,121.67872 84.943272,148.8113 75.58956,177.15705 80.665864,173.54288 85.352849,169.48377 89.798484,165.14884 115.33602,111.17034 161.87279,93.915867 196.91559,83.626932 132.65667,84.050741 49.488511,106.66246 11.095927,162.31176 Z"
         id="path1452"
         sodipodi:nodetypes="ccccccccc" /><path
         style="fill:#18a8cf;fill-opacity:1;stroke-width:0.4;stroke-linecap:round;stroke-linejoin:round;paint-order:stroke fill markers"
         d="m 132.55477,84.218443 c 5.76691,-1.204521 11.01494,-2.149386 16.28932,-2.977782 l -16.1482,-16.525132 z"
         id="path1454"
         sodipodi:nodetypes="cccc" /></g></g></svg>
